<svg width="657.9px" height="121.4px" xmlns="http://www.w3.org/2000/svg" viewBox="-78.94687499999998 14.300000000000004 657.89375 121.39999999999999" style="background: rgba(0, 0, 0, 0)" preserveAspectRatio="xMidYMid"><defs><linearGradient id="editing-sticker-gradient" x1="0.5" y1="0.2" x2="0.5" y2="0.8"><stop offset="0" stop-color="#ffdd99"></stop><stop offset="1" stop-color="#99ddff"></stop></linearGradient><filter id="editing-sticker" x="-100%" y="-100%" width="300%" height="300%"><feMorphology operator="erode" radius="1" in="SourceAlpha" result="alpha-erode"></feMorphology><feConvolveMatrix order="3,3" divisor="1" kernelMatrix="0 1 0 1 1 1 0 1 0" in="alpha-erode" result="alpha-round"></feConvolveMatrix><feMorphology operator="dilate" radius="3.5" in="alpha-round" result="dilate-shadow"></feMorphology><feGaussianBlur in="dilate-shadow" stdDeviation="1.5" result="shadow"></feGaussianBlur><feFlood flood-color="#fff" result="flood-sticker"></feFlood><feComposite operator="in" in="flood-sticker" in2="alpha-round" result="comp-sticker"></feComposite><feMorphology operator="dilate" radius="3" in="comp-sticker" result="morph-sticker"></feMorphology><feConvolveMatrix order="3,3" divisor="1" kernelMatrix="0 1 0 1 1 1 0 1 0" in="morph-sticker" result="sticker"></feConvolveMatrix><feMerge><feMergeNode in="shadow"></feMergeNode><feMergeNode in="sticker"></feMergeNode><feMergeNode in="SourceGraphic"></feMergeNode></feMerge></filter></defs><g filter="url(#editing-sticker)"><g transform="matrix(1.1,0,0,1.6,-0.6,178.2)"><path d="M -3.7 -52.1 L -17.7 -52.1 L -9.5 -94.3 L 4.6 -94.3 L -3.7 -52.1 Z M 52 -50.8 L 52 -50.8 L 52 -50.8 Q 44.3 -50.8 44.3 -56.8 L 44.3 -56.8 L 44.3 -56.8 Q 44.3 -59.4 45.4 -64.5 L 45.4 -64.5 L 45.4 -64.5 Q 46.5 -69.6 46.9 -71.7 L 46.9 -71.7 L 46.9 -71.7 Q 47.8 -76.3 47.8 -77.8 L 47.8 -77.8 L 47.8 -77.8 Q 47.8 -81.1 45.4 -81.1 L 45.4 -81.1 L 45.4 -81.1 Q 43.8 -81.1 42.3 -78.9 L 42.3 -78.9 L 42.3 -78.9 Q 40.7 -76.7 40 -72.2 L 40 -72.2 L 36 -52.1 L 23.6 -50.8 L 27 -68.2 L 27 -68.2 Q 27.6 -71.1 28.1 -74.4 L 28.1 -74.4 L 28.1 -74.4 Q 28.6 -77.6 28.6 -78.1 L 28.6 -78.1 L 28.6 -78.1 Q 28.6 -81.1 26.4 -81.1 L 26.4 -81.1 L 26.4 -81.1 Q 25 -81.1 23.4 -78.9 L 23.4 -78.9 L 23.4 -78.9 Q 21.8 -76.7 20.9 -72.2 L 20.9 -72.2 L 17 -52.1 L 4.4 -50.8 L 11.1 -84.7 L 21.5 -86 L 20.4 -79.5 L 20.4 -79.5 Q 22.1 -83 25.2 -84.5 L 25.2 -84.5 L 25.2 -84.5 Q 28.2 -86 33 -86 L 33 -86 L 33 -86 Q 35.8 -86 37.6 -84.7 L 37.6 -84.7 L 37.6 -84.7 Q 39.4 -83.3 39.9 -81.1 L 39.9 -81.1 L 39.9 -81.1 Q 41 -83.4 43.8 -84.7 L 43.8 -84.7 L 43.8 -84.7 Q 46.6 -86 50 -86 L 50 -86 L 50 -86 Q 53.5 -86 55.1 -85.3 L 55.1 -85.3 L 55.1 -85.3 Q 56.8 -84.5 57.9 -83.3 L 57.9 -83.3 L 57.9 -83.3 Q 59.6 -81.1 59.6 -77 L 59.6 -77 L 59.6 -77 Q 59.6 -72.9 57.9 -64.6 L 57.9 -64.6 L 57.9 -64.6 Q 57 -60.5 57 -59 L 57 -59 L 57 -59 Q 57 -57.5 57.8 -56.6 L 57.8 -56.6 L 57.8 -56.6 Q 58.7 -55.7 60 -55.5 L 60 -55.5 L 60 -55.5 Q 59.3 -53.4 57.1 -52.1 L 57.1 -52.1 L 57.1 -52.1 Q 54.9 -50.8 52 -50.8 Z M 67.7 -54 L 67.7 -54 L 67.7 -54 Q 66.2 -55.7 65.5 -58.3 L 65.5 -58.3 L 65.5 -58.3 Q 64.8 -60.9 64.8 -65.2 L 64.8 -65.2 L 64.8 -65.2 Q 64.8 -69.5 66.3 -73.4 L 66.3 -73.4 L 66.3 -73.4 Q 67.8 -77.3 70.5 -80.1 L 70.5 -80.1 L 70.5 -80.1 Q 76 -86 85.1 -86 L 85.1 -86 L 85.1 -86 Q 88.3 -86 90.7 -84.9 L 90.7 -84.9 L 101.6 -86 L 96.9 -61 L 96.9 -61 Q 96.7 -60.3 96.7 -58.9 L 96.7 -58.9 L 96.7 -58.9 Q 96.7 -57.5 97.6 -56.6 L 97.6 -56.6 L 97.6 -56.6 Q 98.4 -55.7 99.7 -55.5 L 99.7 -55.5 L 99.7 -55.5 Q 99.1 -53.4 96.7 -52.1 L 96.7 -52.1 L 96.7 -52.1 Q 94.4 -50.8 91.8 -50.8 L 91.8 -50.8 L 91.8 -50.8 Q 89.2 -50.8 87.4 -51.8 L 87.4 -51.8 L 87.4 -51.8 Q 85.6 -52.8 85.1 -54.5 L 85.1 -54.5 L 85.1 -54.5 Q 84.1 -52.9 81.9 -51.8 L 81.9 -51.8 L 81.9 -51.8 Q 79.8 -50.8 76.8 -50.8 L 76.8 -50.8 L 76.8 -50.8 Q 73.9 -50.8 71.6 -51.6 L 71.6 -51.6 L 71.6 -51.6 Q 69.2 -52.3 67.7 -54 Z M 81.2 -80 L 81.2 -80 L 81.2 -80 Q 80.5 -78.8 79.8 -76.9 L 79.8 -76.9 L 79.8 -76.9 Q 79.2 -74.9 78.1 -69.7 L 78.1 -69.7 L 78.1 -69.7 Q 77.1 -64.5 77.1 -60.8 L 77.1 -60.8 L 77.1 -60.8 Q 77.1 -57.1 77.6 -56 L 77.6 -56 L 77.6 -56 Q 78.2 -54.9 79.2 -54.9 L 79.2 -54.9 L 79.2 -54.9 Q 81.3 -54.9 82.8 -56.9 L 82.8 -56.9 L 82.8 -56.9 Q 84.3 -58.8 84.9 -62.3 L 84.9 -62.3 L 88.3 -81 L 88.3 -81 Q 86.9 -82.2 85.4 -82.2 L 85.4 -82.2 L 85.4 -82.2 Q 83.8 -82.2 82.9 -81.7 L 82.9 -81.7 L 82.9 -81.7 Q 81.9 -81.1 81.2 -80 Z M 109.4 -78.8 L 109.4 -78.8 L 109.4 -78.8 Q 111.6 -81.9 114.9 -84 L 114.9 -84 L 114.9 -84 Q 118.2 -86 122.2 -86 L 122.2 -86 L 122.2 -86 Q 126.2 -86 128.1 -84.7 L 128.1 -84.7 L 140.7 -86 L 136.3 -61.4 L 136.3 -61.4 Q 134.1 -48.9 129.4 -44 L 129.4 -44 L 129.4 -44 Q 124.8 -39.3 116 -39.3 L 116 -39.3 L 116 -39.3 Q 109.3 -39.3 105.4 -41.4 L 105.4 -41.4 L 105.4 -41.4 Q 101.6 -43.5 101.6 -47 L 101.6 -47 L 101.6 -47 Q 101.6 -49.7 103.6 -51.2 L 103.6 -51.2 L 103.6 -51.2 Q 105.5 -52.7 108.6 -52.7 L 108.6 -52.7 L 108.6 -52.7 Q 111.3 -52.7 113.4 -51.4 L 113.4 -51.4 L 113.4 -51.4 Q 114.6 -50.8 115.1 -49.9 L 115.1 -49.9 L 115.1 -49.9 Q 113.7 -48.6 113.7 -46.5 L 113.7 -46.5 L 113.7 -46.5 Q 113.7 -43.8 116.2 -43.8 L 116.2 -43.8 L 116.2 -43.8 Q 120.5 -43.8 123 -53.9 L 123 -53.9 L 123 -53.9 Q 123.7 -56.6 124.2 -59.4 L 124.2 -59.4 L 124.2 -59.4 Q 121.4 -55.9 114.8 -55.9 L 114.8 -55.9 L 114.8 -55.9 Q 110.3 -55.9 107.7 -58 L 107.7 -58 L 107.7 -58 Q 105 -60.2 105 -65.3 L 105 -65.3 L 105 -65.3 Q 105 -68.5 106.1 -72.1 L 106.1 -72.1 L 106.1 -72.1 Q 107.2 -75.8 109.4 -78.8 Z M 117.7 -65.1 L 117.7 -65.1 L 117.7 -65.1 Q 117.7 -60.8 119.9 -60.8 L 119.9 -60.8 L 119.9 -60.8 Q 121.5 -60.8 123 -62.5 L 123 -62.5 L 123 -62.5 Q 124.1 -63.8 124.6 -65.8 L 124.6 -65.8 L 127.8 -82.2 L 127.8 -82.2 Q 127.5 -82.3 127.2 -82.4 L 127.2 -82.4 L 127.2 -82.4 Q 126.5 -82.7 125.7 -82.7 L 125.7 -82.7 L 125.7 -82.7 Q 121.8 -82.7 119.5 -76.3 L 119.5 -76.3 L 119.5 -76.3 Q 117.7 -71.3 117.7 -65.1 Z M 169.1 -62.9 L 169.1 -62.9 L 169.1 -62.9 Q 170.7 -61.8 170.7 -59.4 L 170.7 -59.4 L 170.7 -59.4 Q 170.7 -57 169.5 -55.5 L 169.5 -55.5 L 169.5 -55.5 Q 168.3 -53.9 166.3 -52.9 L 166.3 -52.9 L 166.3 -52.9 Q 162.2 -50.8 157.8 -50.8 L 157.8 -50.8 L 157.8 -50.8 Q 153.4 -50.8 150.8 -51.8 L 150.8 -51.8 L 150.8 -51.8 Q 148.2 -52.7 146.4 -54.5 L 146.4 -54.5 L 146.4 -54.5 Q 143.1 -57.9 143.1 -64.1 L 143.1 -64.1 L 143.1 -64.1 Q 143.1 -73.8 148.3 -79.7 L 148.3 -79.7 L 148.3 -79.7 Q 153.9 -86 163.7 -86 L 163.7 -86 L 163.7 -86 Q 169.8 -86 172.8 -83.4 L 172.8 -83.4 L 172.8 -83.4 Q 175.1 -81.5 175.1 -78.4 L 175.1 -78.4 L 175.1 -78.4 Q 175.1 -67.1 155.6 -67.1 L 155.6 -67.1 L 155.6 -67.1 Q 155.3 -65.5 155.3 -64.1 L 155.3 -64.1 L 155.3 -64.1 Q 155.3 -61.1 156.7 -60 L 156.7 -60 L 156.7 -60 Q 158 -58.9 160.4 -58.9 L 160.4 -58.9 L 160.4 -58.9 Q 162.8 -58.9 165.4 -60 L 165.4 -60 L 165.4 -60 Q 168 -61.1 169.1 -62.9 Z M 156 -69.9 L 156 -69.9 L 156 -69.9 Q 160.6 -69.9 163.2 -72.7 L 163.2 -72.7 L 163.2 -72.7 Q 165.8 -75.4 165.8 -79.7 L 165.8 -79.7 L 165.8 -79.7 Q 165.8 -81.1 165.3 -81.9 L 165.3 -81.9 L 165.3 -81.9 Q 164.7 -82.7 163.7 -82.7 L 163.7 -82.7 L 163.7 -82.7 Q 162.6 -82.7 161.6 -82.3 L 161.6 -82.3 L 161.6 -82.3 Q 160.7 -81.9 159.8 -80.5 L 159.8 -80.5 L 159.8 -80.5 Q 157.4 -77.3 156 -69.9 Z M 196.4 -74.5 L 196.4 -74.5 L 196.4 -74.5 Q 197.3 -76.9 197.3 -79 L 197.3 -79 L 197.3 -79 Q 197.3 -82.7 194.2 -82.7 L 194.2 -82.7 L 194.2 -82.7 Q 192.6 -82.7 191.3 -81.3 L 191.3 -81.3 L 191.3 -81.3 Q 190 -79.9 190 -78.1 L 190 -78.1 L 190 -78.1 Q 190 -76.8 191 -75.8 L 191 -75.8 L 191 -75.8 Q 192.5 -74.4 196.2 -72.1 L 196.2 -72.1 L 196.2 -72.1 Q 200 -69.7 201.5 -67.9 L 201.5 -67.9 L 201.5 -67.9 Q 202.9 -66 202.9 -63.4 L 202.9 -63.4 L 202.9 -63.4 Q 202.9 -60.8 201.6 -58.4 L 201.6 -58.4 L 201.6 -58.4 Q 200.4 -56.1 198.2 -54.4 L 198.2 -54.4 L 198.2 -54.4 Q 193.4 -50.8 185.7 -50.8 L 185.7 -50.8 L 185.7 -50.8 Q 181.5 -50.8 178.3 -53 L 178.3 -53 L 178.3 -53 Q 175.1 -55.1 175.1 -57.6 L 175.1 -57.6 L 175.1 -57.6 Q 175.1 -60.1 176.9 -61.6 L 176.9 -61.6 L 176.9 -61.6 Q 178.8 -63 181.5 -63 L 181.5 -63 L 181.5 -63 Q 184.1 -63 185.8 -62 L 185.8 -62 L 185.8 -62 Q 185 -59.9 185 -58.5 L 185 -58.5 L 185 -58.5 Q 185 -54.3 188.6 -54.3 L 188.6 -54.3 L 188.6 -54.3 Q 190.1 -54.3 191.1 -55.2 L 191.1 -55.2 L 191.1 -55.2 Q 192.1 -56.2 192.1 -57.8 L 192.1 -57.8 L 192.1 -57.8 Q 192.1 -61.1 186.6 -64.6 L 186.6 -64.6 L 186.6 -64.6 Q 182.2 -67.5 181.1 -68.7 L 181.1 -68.7 L 181.1 -68.7 Q 179.4 -70.7 179.4 -73.3 L 179.4 -73.3 L 179.4 -73.3 Q 179.4 -75.8 180.6 -78.3 L 180.6 -78.3 L 180.6 -78.3 Q 181.8 -80.7 184.1 -82.4 L 184.1 -82.4 L 184.1 -82.4 Q 188.7 -86 196.9 -86 L 196.9 -86 L 196.9 -86 Q 201 -86 203.5 -84.3 L 203.5 -84.3 L 203.5 -84.3 Q 206 -82.7 206 -79.9 L 206 -79.9 L 206 -79.9 Q 206 -77 204.3 -75.4 L 204.3 -75.4 L 204.3 -75.4 Q 202.6 -73.8 199.5 -73.8 L 199.5 -73.8 L 199.5 -73.8 Q 197.4 -73.8 196.4 -74.5 Z M 247.4 -72.7 L 260.4 -73.8 L 260.4 -73.8 Q 255.8 -63.7 255.8 -52 L 255.8 -52 L 255.8 -52 Q 254 -50.8 251.5 -50.8 L 251.5 -50.8 L 251.5 -50.8 Q 249 -50.8 247.4 -52 L 247.4 -52 L 247.4 -52 Q 245.8 -53.2 245.5 -54.4 L 245.5 -54.4 L 245.5 -54.4 Q 243.9 -52.7 241.3 -51.8 L 241.3 -51.8 L 241.3 -51.8 Q 238.7 -50.8 235.9 -50.8 L 235.9 -50.8 L 235.9 -50.8 Q 233.2 -50.8 230.8 -51.7 L 230.8 -51.7 L 230.8 -51.7 Q 228.4 -52.6 226.5 -54.6 L 226.5 -54.6 L 226.5 -54.6 Q 222.4 -58.9 222.4 -67.2 L 222.4 -67.2 L 222.4 -67.2 Q 222.4 -80 229.3 -87.7 L 229.3 -87.7 L 229.3 -87.7 Q 236.3 -95.6 248.8 -95.6 L 248.8 -95.6 L 248.8 -95.6 Q 257.4 -95.6 260.5 -91.1 L 260.5 -91.1 L 260.5 -91.1 Q 261.5 -89.7 261.5 -88 L 261.5 -88 L 261.5 -88 Q 261.5 -86.3 260.7 -84.9 L 260.7 -84.9 L 260.7 -84.9 Q 260 -83.4 258.8 -82.3 L 258.8 -82.3 L 258.8 -82.3 Q 256.1 -79.7 252.7 -79.7 L 252.7 -79.7 L 252.7 -79.7 Q 251.3 -79.7 250.1 -80.2 L 250.1 -80.2 L 250.1 -80.2 Q 250.3 -82.1 250.3 -84.3 L 250.3 -84.3 L 250.3 -84.3 Q 250.3 -86.6 250.2 -87.6 L 250.2 -87.6 L 250.2 -87.6 Q 250 -88.6 249.6 -89.5 L 249.6 -89.5 L 249.6 -89.5 Q 248.8 -91.2 247 -91.2 L 247 -91.2 L 247 -91.2 Q 245.1 -91.2 243.1 -89.2 L 243.1 -89.2 L 243.1 -89.2 Q 241.1 -87.3 239.5 -84.1 L 239.5 -84.1 L 239.5 -84.1 Q 236 -76.9 236 -68.3 L 236 -68.3 L 236 -68.3 Q 236 -64.3 237.5 -61.5 L 237.5 -61.5 L 237.5 -61.5 Q 239.2 -58.4 242.1 -58.4 L 242.1 -58.4 L 242.1 -58.4 Q 243.1 -58.4 244.1 -58.9 L 244.1 -58.9 L 244.1 -58.9 Q 245 -59.4 245.4 -59.8 L 245.4 -59.8 L 247.4 -72.7 Z M 266.3 -54 L 266.3 -54 L 266.3 -54 Q 264.8 -55.7 264.1 -58.3 L 264.1 -58.3 L 264.1 -58.3 Q 263.4 -60.9 263.4 -65.2 L 263.4 -65.2 L 263.4 -65.2 Q 263.4 -69.5 264.9 -73.4 L 264.9 -73.4 L 264.9 -73.4 Q 266.4 -77.3 269.1 -80.1 L 269.1 -80.1 L 269.1 -80.1 Q 274.6 -86 283.7 -86 L 283.7 -86 L 283.7 -86 Q 286.9 -86 289.3 -84.9 L 289.3 -84.9 L 300.2 -86 L 295.5 -61 L 295.5 -61 Q 295.3 -60.3 295.3 -58.9 L 295.3 -58.9 L 295.3 -58.9 Q 295.3 -57.5 296.2 -56.6 L 296.2 -56.6 L 296.2 -56.6 Q 297 -55.7 298.3 -55.5 L 298.3 -55.5 L 298.3 -55.5 Q 297.7 -53.4 295.3 -52.1 L 295.3 -52.1 L 295.3 -52.1 Q 293 -50.8 290.4 -50.8 L 290.4 -50.8 L 290.4 -50.8 Q 287.8 -50.8 286 -51.8 L 286 -51.8 L 286 -51.8 Q 284.2 -52.8 283.7 -54.5 L 283.7 -54.5 L 283.7 -54.5 Q 282.7 -52.9 280.5 -51.8 L 280.5 -51.8 L 280.5 -51.8 Q 278.3 -50.8 275.4 -50.8 L 275.4 -50.8 L 275.4 -50.8 Q 272.5 -50.8 270.2 -51.6 L 270.2 -51.6 L 270.2 -51.6 Q 267.8 -52.3 266.3 -54 Z M 279.8 -80 L 279.8 -80 L 279.8 -80 Q 279.1 -78.8 278.4 -76.9 L 278.4 -76.9 L 278.4 -76.9 Q 277.8 -74.9 276.7 -69.7 L 276.7 -69.7 L 276.7 -69.7 Q 275.7 -64.5 275.7 -60.8 L 275.7 -60.8 L 275.7 -60.8 Q 275.7 -57.1 276.2 -56 L 276.2 -56 L 276.2 -56 Q 276.8 -54.9 277.8 -54.9 L 277.8 -54.9 L 277.8 -54.9 Q 279.9 -54.9 281.4 -56.9 L 281.4 -56.9 L 281.4 -56.9 Q 282.9 -58.8 283.5 -62.3 L 283.5 -62.3 L 286.9 -81 L 286.9 -81 Q 285.5 -82.2 283.9 -82.2 L 283.9 -82.2 L 283.9 -82.2 Q 282.4 -82.2 281.5 -81.7 L 281.5 -81.7 L 281.5 -81.7 Q 280.5 -81.1 279.8 -80 Z M 319 -55.6 L 319 -55.6 L 319 -55.6 Q 317 -50.8 310.7 -50.8 L 310.7 -50.8 L 310.7 -50.8 Q 307.5 -50.8 305.4 -53 L 305.4 -53 L 305.4 -53 Q 303.8 -54.9 303.8 -57 L 303.8 -57 L 303.8 -57 Q 303.8 -61.8 306 -72.3 L 306 -72.3 L 310.7 -96.9 L 323.7 -98.2 L 317.5 -65.8 L 317.5 -65.8 Q 316.4 -61 316.4 -59.4 L 316.4 -59.4 L 316.4 -59.4 Q 316.4 -55.7 319 -55.6 Z M 339.7 -55.6 L 339.7 -55.6 L 339.7 -55.6 Q 337.7 -50.8 331.4 -50.8 L 331.4 -50.8 L 331.4 -50.8 Q 328.2 -50.8 326.2 -53 L 326.2 -53 L 326.2 -53 Q 324.5 -54.9 324.5 -57 L 324.5 -57 L 324.5 -57 Q 324.5 -61.8 326.7 -72.3 L 326.7 -72.3 L 331.4 -96.9 L 344.4 -98.2 L 338.2 -65.8 L 338.2 -65.8 Q 337.1 -61 337.1 -59.4 L 337.1 -59.4 L 337.1 -59.4 Q 337.1 -55.7 339.7 -55.6 Z M 371.1 -62.9 L 371.1 -62.9 L 371.1 -62.9 Q 372.7 -61.8 372.7 -59.4 L 372.7 -59.4 L 372.7 -59.4 Q 372.7 -57 371.5 -55.5 L 371.5 -55.5 L 371.5 -55.5 Q 370.3 -53.9 368.3 -52.9 L 368.3 -52.9 L 368.3 -52.9 Q 364.2 -50.8 359.8 -50.8 L 359.8 -50.8 L 359.8 -50.8 Q 355.3 -50.8 352.7 -51.8 L 352.7 -51.8 L 352.7 -51.8 Q 350.2 -52.7 348.4 -54.5 L 348.4 -54.5 L 348.4 -54.5 Q 345 -57.9 345 -64.1 L 345 -64.1 L 345 -64.1 Q 345 -73.8 350.3 -79.7 L 350.3 -79.7 L 350.3 -79.7 Q 355.9 -86 365.7 -86 L 365.7 -86 L 365.7 -86 Q 371.8 -86 374.8 -83.4 L 374.8 -83.4 L 374.8 -83.4 Q 377 -81.5 377 -78.4 L 377 -78.4 L 377 -78.4 Q 377 -67.1 357.6 -67.1 L 357.6 -67.1 L 357.6 -67.1 Q 357.3 -65.5 357.3 -64.1 L 357.3 -64.1 L 357.3 -64.1 Q 357.3 -61.1 358.6 -60 L 358.6 -60 L 358.6 -60 Q 359.9 -58.9 362.4 -58.9 L 362.4 -58.9 L 362.4 -58.9 Q 364.8 -58.9 367.4 -60 L 367.4 -60 L 367.4 -60 Q 370 -61.1 371.1 -62.9 Z M 358 -69.9 L 358 -69.9 L 358 -69.9 Q 362.6 -69.9 365.2 -72.7 L 365.2 -72.7 L 365.2 -72.7 Q 367.8 -75.4 367.8 -79.7 L 367.8 -79.7 L 367.8 -79.7 Q 367.8 -81.1 367.3 -81.9 L 367.3 -81.9 L 367.3 -81.9 Q 366.7 -82.7 365.6 -82.7 L 365.6 -82.7 L 365.6 -82.7 Q 364.6 -82.7 363.6 -82.3 L 363.6 -82.3 L 363.6 -82.3 Q 362.7 -81.9 361.7 -80.5 L 361.7 -80.5 L 361.7 -80.5 Q 359.4 -77.3 358 -69.9 Z M 399.2 -70.1 L 399.2 -70.1 L 399.2 -70.1 Q 401.5 -74.2 401.5 -78.3 L 401.5 -78.3 L 401.5 -78.3 Q 401.5 -81.1 399.6 -81.1 L 399.6 -81.1 L 399.6 -81.1 Q 398 -81.1 396.4 -78.5 L 396.4 -78.5 L 396.4 -78.5 Q 394.8 -75.8 394.3 -72.4 L 394.3 -72.4 L 390.9 -52.1 L 377.7 -50.8 L 384.2 -84.7 L 394.8 -86 L 393.6 -79.5 L 393.6 -79.5 Q 396.7 -86 403.8 -86 L 403.8 -86 L 403.8 -86 Q 407.5 -86 409.5 -84.1 L 409.5 -84.1 L 409.5 -84.1 Q 411.5 -82.2 411.5 -78.2 L 411.5 -78.2 L 411.5 -78.2 Q 411.5 -74.3 408.9 -71.8 L 408.9 -71.8 L 408.9 -71.8 Q 406.3 -69.3 401.9 -69.3 L 401.9 -69.3 L 401.9 -69.3 Q 400 -69.3 399.2 -70.1 Z M 432.9 -59.3 L 432.9 -59.3 L 432.9 -59.3 Q 429.6 -55.9 423.5 -55.9 L 423.5 -55.9 L 423.5 -55.9 Q 415.9 -55.9 414.3 -61.4 L 414.3 -61.4 L 414.3 -61.4 Q 413.8 -63.1 413.8 -64.9 L 413.8 -64.9 L 413.8 -64.9 Q 413.8 -66.8 414.2 -68.7 L 414.2 -68.7 L 417.2 -84.7 L 430.2 -86 L 426.6 -67.4 L 426.6 -67.4 Q 426.5 -66.5 426.3 -65.7 L 426.3 -65.7 L 426.3 -65.7 Q 426.1 -64.8 426.1 -63.8 L 426.1 -63.8 L 426.1 -63.8 Q 426.1 -62.9 426.4 -62.3 L 426.4 -62.3 L 426.4 -62.3 Q 426.8 -61.7 427.2 -61.3 L 427.2 -61.3 L 427.2 -61.3 Q 428 -60.8 429.4 -60.8 L 429.4 -60.8 L 429.4 -60.8 Q 430.7 -60.8 431.9 -62.5 L 431.9 -62.5 L 431.9 -62.5 Q 433.1 -64.1 433.7 -67 L 433.7 -67 L 437.2 -84.7 L 449.8 -86 L 445 -60.9 L 445 -60.9 Q 442.6 -48.6 437.8 -43.7 L 437.8 -43.7 L 437.8 -43.7 Q 435.3 -41.2 432 -40.2 L 432 -40.2 L 432 -40.2 Q 428.8 -39.2 424.7 -39.2 L 424.7 -39.2 L 424.7 -39.2 Q 417.9 -39.2 414.1 -41.3 L 414.1 -41.3 L 414.1 -41.3 Q 410.3 -43.4 410.3 -47 L 410.3 -47 L 410.3 -47 Q 410.3 -49.6 412.2 -51.1 L 412.2 -51.1 L 412.2 -51.1 Q 414.2 -52.6 417.3 -52.6 L 417.3 -52.6 L 417.3 -52.6 Q 420 -52.6 422 -51.4 L 422 -51.4 L 422 -51.4 Q 423.2 -50.7 423.8 -49.8 L 423.8 -49.8 L 423.8 -49.8 Q 422.3 -48.6 422.3 -46.5 L 422.3 -46.5 L 422.3 -46.5 Q 422.3 -43.6 424.9 -43.6 L 424.9 -43.6 L 424.9 -43.6 Q 429.1 -43.6 431.6 -53.4 L 431.6 -53.4 L 431.6 -53.4 Q 432.3 -56.2 432.9 -59.3 Z" fill="url(#editing-sticker-gradient)" stroke="#000000" stroke-width="2.5"></path></g></g><style>text {
  font-size: 64px;
  font-family: Arial Black;
  dominant-baseline: central;
  text-anchor: middle;
}</style></svg>